<svg width="432" height="432" viewBox="0 0 432 432" fill="none" xmlns="http://www.w3.org/2000/svg">
<rect width="432" height="432" fill="#554AA0"/>
<path d="M421 216.091C421 260.855 384.099 297.181 338.626 297.181C293.153 297.181 256.252 260.855 256.252 216.091C256.252 171.326 293.153 135 338.626 135C384.166 135 421 171.326 421 216.091Z" fill="#C2D500"/>
<path d="M244.264 216.091C244.264 248.197 217.81 274.305 185.196 274.305C152.514 274.305 126.06 248.263 126.06 216.091C126.06 183.984 152.514 157.943 185.196 157.943C217.81 157.943 244.264 183.984 244.264 216.091Z" fill="#E64783"/>
<path d="M156.398 216.091C156.398 255.911 123.65 288.149 83.1991 288.149C42.7487 288.149 10 255.845 10 216.091C10 176.271 42.7487 144.032 83.1991 144.032C123.583 144.032 156.398 176.271 156.398 216.091Z" fill="#3BBFAD"/>
<path d="M119.698 233.891C119.698 248.197 107.978 256.504 89.2265 256.504C74.1581 256.504 66.2555 256.306 53.665 254.922V176.93C62.2373 176.073 77.2388 175.677 87.6862 175.677C105.902 175.677 116.551 183.457 116.551 196.774C116.551 205.74 111.193 213.058 102.621 215.497C113.068 217.871 119.698 225.189 119.698 233.891ZM73.0196 191.764V209.234H87.0835C93.8475 209.234 98.3346 205.608 98.3346 200.07C98.3346 194.401 94.1824 191.829 85.6771 191.829H73.0196V191.764ZM100.679 231.122C100.679 225.98 96.0576 223.079 89.0926 223.079H73.0196V240.088C78.4442 240.22 83.8019 240.418 87.2174 240.418C95.8566 240.418 100.679 237.253 100.679 231.122Z" fill="white"/>
<path d="M188.276 200.532C193.902 200.532 198.657 196.247 198.657 190.511C198.657 184.577 193.902 180.292 188.276 180.292C182.45 180.292 177.762 184.577 177.762 190.511C177.762 196.247 182.45 200.532 188.276 200.532Z" fill="white"/>
<path d="M179.704 206.729V251.955H196.916V223.672C196.916 209.102 194.438 206.729 179.704 206.729Z" fill="white"/>
<path d="M367.088 182.731C357.578 182.731 346.193 184.577 339.563 186.423C335.009 183.984 328.982 182.731 322.084 182.731C308.891 182.731 291.947 184.907 285.853 186.094L285.183 186.225V249.384H305.944V201.982C310.297 201.587 314.181 201.389 317.664 201.389C326.303 201.389 330.321 205.344 330.321 213.849V249.45H351.082V209.036C351.082 206.927 350.948 204.949 350.547 202.575C354.9 201.784 358.918 201.389 362.668 201.389C371.374 201.389 375.46 205.344 375.46 213.849V249.45H396.221V208.377C396.087 191.632 386.108 182.731 367.088 182.731Z" fill="white"/>
</svg>
